<?xml version="1.0" encoding="UTF-8"?>
<svg width="260px" height="35px" viewBox="0 0 260 35" version="1.1" xmlns="http://www.w3.org/2000/svg" xmlns:xlink="http://www.w3.org/1999/xlink">
    <!-- Generator: Sketch 52.3 (67297) - http://www.bohemiancoding.com/sketch -->
    <title>logo normal</title>
    <desc>Created with Sketch.</desc>
    <g id="Page-1" stroke="none" stroke-width="1" fill="none" fill-rule="evenodd">
        <g id="Logo-book" transform="translate(-227.000000, -382.000000)">
            <g id="logo-normal" transform="translate(227.000000, 382.000000)">
                <path d="M22.06235,34.1390174 L22.06235,29.2592276 C19.8343063,31.7465597 15.9183506,34.1666667 10.5845489,34.1666667 C3.42780224,34.1666667 0.0519783629,30.2676055 0.0519783629,23.9484373 L-1.47437618e-13,-7.10542736e-14 L8.57459264,-7.10542736e-14 L8.62657101,20.5871776 C8.62657101,25.0912656 10.9896477,26.5702198 14.6355375,26.5702198 C17.9438449,26.5702198 20.5769875,24.7551396 22.06235,22.8728342 L22.0103717,-7.10542736e-14 L30.5849643,-7.10542736e-14 L30.6369427,34.1390174 L22.06235,34.1390174 Z" id="Path" fill="#1A1B1E"></path>
                <path d="M32.2929936,29.112426 L36.043462,23.1147272 C38.4301236,25.338593 43.3398277,27.5624589 47.4312477,27.5624589 C51.181716,27.5624589 52.9546647,26.2820513 52.9546647,24.260355 C52.9546647,21.9690993 50.0906707,21.1604208 46.3402023,20.4191321 C40.6804046,19.3408941 33.384039,17.9930966 33.384039,10.243261 C33.384039,4.78468113 38.2255526,-7.10542736e-14 46.885725,-7.10542736e-14 C52.4773323,-7.10542736e-14 56.909704,1.8869165 60.1146497,4.44773176 L56.705133,10.3106509 C54.7276133,8.22156476 50.977145,6.53681788 46.9539153,6.53681788 C43.81716,6.53681788 41.77145,7.68244576 41.77145,9.56936226 C41.77145,11.5910585 44.3626827,12.3323471 48.0449607,13.0736358 C53.7047583,14.1518738 61.2738854,15.634451 61.2738854,23.721236 C61.2738854,29.7189349 56.1596103,34.1666667 47.0221057,34.1666667 C41.2941176,34.1666667 35.7707006,32.2797502 32.2929936,29.112426 Z" id="Path" fill="#1A1B1E"></path>
                <path d="M62.1019108,17.0496384 C62.1019108,7.61505588 69.0357827,-2.0250468e-13 78.931697,-2.0250468e-13 C88.6256538,-2.0250468e-13 95.2229299,7.27810651 95.2229299,17.9257068 L95.2229299,19.8126233 L71.0553571,19.8126233 C71.5939102,23.9234057 74.8925483,27.3602893 80.4127181,27.3602893 C83.4420796,27.3602893 87.0099943,26.1472715 89.0968878,24.1255753 L92.8667599,29.651545 C89.5681218,32.6840894 84.519186,34.1666667 79.4702501,34.1666667 C69.5743359,34.1666667 62.1019108,27.495069 62.1019108,17.0496384 Z M79.0272903,6.24663716 C73.7090778,6.24663716 71.4202269,10.2226398 71.0163121,13.4573538 L87.0382685,13.4573538 C86.836311,10.3574195 84.6820984,6.24663716 79.0272903,6.24663716 Z" id="Combined-Shape" fill="#1A1B1E"></path>
                <path d="M98.5350318,34.1666667 L98.5350318,-7.10542736e-14 L107.142371,-7.10542736e-14 L107.142371,5.18053221 C109.446699,2.28750773 113.513158,-7.10542736e-14 117.579618,-7.10542736e-14 L117.579618,8.34267525 C116.969649,8.20811597 116.156357,8.14083633 115.207516,8.14083633 C112.360995,8.14083633 108.565632,9.68826803 107.142371,11.7739368 L107.142371,34.1666667 L98.5350318,34.1666667 Z" id="Path" fill="#1A1B1E"></path>
                <path d="M125.902335,20.8333333 L132.484076,20.8333333 L132.484076,27.5424628 C132.484076,31.2009096 129.518319,34.1666667 125.859873,34.1666667 L125.859873,34.1666667 C122.201426,34.1666667 119.235669,31.2009096 119.235669,27.5424628 L119.235669,27.5 C119.235669,23.8181017 122.220437,20.8333333 125.902335,20.8333333 Z" id="Rectangle-4-Copy-11" fill="#315EFB"></path>
                <path d="M139.936306,17.0496384 C139.936306,7.07593688 147.222371,-7.10542736e-14 157.368388,-7.10542736e-14 C164.1097,-7.10542736e-14 168.195345,2.89776463 170.374355,5.93030901 L164.722547,11.1193294 C163.156383,8.89546351 160.773091,7.61505588 157.776952,7.61505588 C152.533709,7.61505588 148.856629,11.3888889 148.856629,17.0496384 C148.856629,22.7103879 152.533709,26.5516108 157.776952,26.5516108 C160.773091,26.5516108 163.156383,25.2038133 164.722547,23.0473373 L170.374355,28.2363577 C168.195345,31.268902 164.1097,34.1666667 157.368388,34.1666667 C147.222371,34.1666667 139.936306,27.0907298 139.936306,17.0496384 Z M188.970961,34.1666667 C178.144004,34.1666667 171.606973,26.3494412 171.606973,17.0496384 C171.606973,7.81722551 178.144004,-7.10542736e-14 188.970961,-7.10542736e-14 C199.866012,-7.10542736e-14 206.403042,7.81722551 206.403042,17.0496384 C206.403042,26.3494412 199.866012,34.1666667 188.970961,34.1666667 Z M188.970961,26.5516108 C194.350392,26.5516108 197.414625,22.1712689 197.414625,17.0496384 C197.414625,11.9953978 194.350392,7.61505588 188.970961,7.61505588 C183.591529,7.61505588 180.59539,11.9953978 180.59539,17.0496384 C180.59539,22.1712689 183.591529,26.5516108 188.970961,26.5516108 Z M251.283959,33.3579882 L251.283959,12.8040763 C251.283959,9.77153189 249.922078,7.61505588 246.381186,7.61505588 C243.316953,7.61505588 240.797472,9.63675214 239.571779,11.3888889 L239.571779,33.3579882 L230.855738,33.3579882 L230.855738,12.8040763 C230.855738,9.77153189 229.493857,7.61505588 225.952965,7.61505588 C222.956826,7.61505588 220.437346,9.63675214 219.143558,11.4562788 L219.143558,33.3579882 L210.495611,33.3579882 L210.495611,0.808678501 L219.143558,0.808678501 L219.143558,5.05424063 C220.50544,3.09993425 224.86346,-7.10542736e-14 229.902421,-7.10542736e-14 C234.7371,-7.10542736e-14 237.801333,2.22386588 239.027027,5.93030901 C240.933661,2.9651545 245.291681,-7.10542736e-14 250.330642,-7.10542736e-14 C256.391014,-7.10542736e-14 260,3.16732413 260,9.83892176 L260,33.3579882 L251.283959,33.3579882 Z" id="com" fill="#1A1B1E"></path>
            </g>
        </g>
    </g>
</svg>